<mxfile host="app.diagrams.net" modified="2023-09-14T13:53:46.953Z" agent="Mozilla/5.0 (Windows NT 10.0; Win64; x64) AppleWebKit/537.36 (KHTML, like Gecko) Chrome/116.0.0.0 Safari/537.36" version="21.7.2" etag="1n_sz7A_Ct98VYJaG1zO" type="github">
  <diagram name="第 1 页" id="4hsigJ5YkMiY0DSW_-nW">
    <mxGraphModel>
      <root>
        <mxCell id="0" />
        <mxCell id="1" parent="0" />
      </root>
    </mxGraphModel>
  </diagram>
</mxfile>
